<svg clip-rule="evenodd" fill-rule="evenodd" stroke-linejoin="round" stroke-miterlimit="1.414" viewBox="0 0 16 16" xmlns="http://www.w3.org/2000/svg"><path d="M2.303 2.303C3.838.768 5.695 0 7.875 0s4.037.768 5.572 2.303 2.303 3.392 2.303 5.572-.768 4.037-2.303 5.572-3.392 2.303-5.572 2.303-4.037-.768-5.572-2.303S0 10.055 0 7.875s.768-4.037 2.303-5.572zm6.275 9.193a.963.963 0 00-.264-.773.994.994 0 00-.755-.317c-.282 0-.528.094-.739.282a.938.938 0 00-.316.738c0 .304.094.556.281.756a.926.926 0 00.703.298c.305 0 .563-.087.774-.263s.316-.416.316-.721zm1.723-4.5c.281-.398.422-.82.422-1.266 0-.773-.293-1.382-.879-1.828-.563-.422-1.289-.632-2.18-.632-.656 0-1.207.152-1.652.457-.657.445-.985 1.242-.985 2.39H6.75c0-.492.047-.808.141-.949.211-.352.515-.527.914-.527.398 0 .691.129.879.386.187.258.281.528.281.809 0 .187-.094.422-.281.703-.047.094-.164.211-.352.352-.609.351-1.02.703-1.23 1.054-.188.305-.305.785-.352 1.442 0 .093.047.14.141.14h1.371c.117 0 .175-.047.175-.14 0-.258.024-.481.071-.668.07-.211.211-.41.422-.598l.492-.316c.445-.328.738-.598.879-.809z" fill="#244c8e" fill-rule="nonzero"/></svg>